<?xml version="1.0" encoding="UTF-8"?>
<svg version="1.1" xmlns="http://www.w3.org/2000/svg" width="512" height="512">
<path d="M0 0 C1.12361106 -0.00382555 2.24722213 -0.00765109 3.40488201 -0.01159257 C7.1540078 -0.02187649 10.90297913 -0.01793914 14.65211487 -0.01396179 C17.34654748 -0.01831078 20.04096894 -0.02343042 22.73539734 -0.02944946 C29.28479825 -0.04217073 35.83415811 -0.04399341 42.38356929 -0.0416492 C47.70888382 -0.03986316 53.03418593 -0.04162179 58.35949898 -0.04587364 C59.11861668 -0.04646883 59.87773438 -0.04706402 60.65985565 -0.04767724 C62.20219954 -0.04888905 63.74454342 -0.05010318 65.2868873 -0.05131962 C79.73661855 -0.06218504 94.18632643 -0.06003727 108.63605899 -0.05393478 C121.84310743 -0.0487653 135.05008211 -0.06002365 148.25711595 -0.07903299 C161.83342512 -0.09842338 175.40969943 -0.10666537 188.98602253 -0.10290974 C196.6019881 -0.10099968 204.21789089 -0.10346637 211.83384514 -0.11762428 C218.316675 -0.1295543 224.79940342 -0.13092477 231.28223472 -0.11883412 C234.58682216 -0.11295702 237.89118651 -0.11344991 241.19576836 -0.12383652 C244.7849802 -0.13430302 248.37369644 -0.12620339 251.96289062 -0.11352539 C253.51500556 -0.12458682 253.51500556 -0.12458682 255.09847635 -0.13587171 C265.40273506 -0.0594976 274.70207889 2.31831448 282.54493713 9.26069641 C288.96267168 16.68273293 291.80779057 23.58172141 291.77198792 33.4811554 C291.77227997 34.16492752 291.77257202 34.84869965 291.77287292 35.55319214 C291.77149216 37.78785906 291.75599106 40.02218231 291.74024963 42.25679016 C291.73651503 43.81620095 291.73367017 45.3756141 291.73167419 46.93502808 C291.72407295 51.02031542 291.704455 55.1054584 291.68226624 59.19068909 C291.66173184 63.36699979 291.6526563 67.54333404 291.64259338 71.71968079 C291.62120546 79.90008525 291.58711238 88.08037282 291.54493713 96.26069641 C292.36324949 96.25793103 292.36324949 96.25793103 293.19809341 96.25510979 C306.52122902 96.21078761 319.84435157 96.17789861 333.16754532 96.15707207 C339.61075347 96.14666001 346.05390817 96.13254801 352.49708557 96.1098175 C358.72164684 96.08799707 364.94615689 96.07610842 371.17075348 96.07094193 C373.53884944 96.06726265 375.90694278 96.06007816 378.27501678 96.0492363 C381.60626156 96.03459907 384.9372979 96.03272356 388.26856995 96.03364563 C389.2353064 96.02645508 390.20204285 96.01926453 391.19807434 96.01185608 C407.68868316 96.06085835 420.65153528 99.82112033 432.67384338 111.29194641 C445.02965964 124.23390196 449.68327764 143.23125518 454.91993713 159.94819641 C455.26374672 161.03819757 455.26374672 161.03819757 455.61450195 162.15021896 C468.50760037 203.39405041 466.51725647 245.54880173 464.54493713 288.26069641 C467.18493713 288.26069641 469.82493713 288.26069641 472.54493713 288.26069641 C472.54493713 300.47069641 472.54493713 312.68069641 472.54493713 325.26069641 C458.35493713 325.26069641 444.16493713 325.26069641 429.54493713 325.26069641 C429.21493713 328.89069641 428.88493713 332.52069641 428.54493713 336.26069641 C425.18995897 349.72994699 416.64065317 361.67012439 404.83009338 368.98335266 C391.41770727 376.48053259 377.50654806 378.52344195 362.52931213 374.30366516 C347.97348338 369.21674595 337.85109345 361.00402525 330.96290588 347.05757141 C327.62067223 339.23655203 326.54493713 333.9278439 326.54493713 325.26069641 C261.53493713 325.26069641 196.52493713 325.26069641 129.54493713 325.26069641 C129.54493713 327.57069641 129.54493713 329.88069641 129.54493713 332.26069641 C126.41445762 346.63641796 119.40073973 358.96042325 107.23243713 367.57319641 C94.26861237 375.57892679 80.40190033 378.45201639 65.41993713 375.13569641 C55.69729189 372.39078073 47.66395972 367.36400372 40.54493713 360.26069641 C40.01255432 359.73991516 39.48017151 359.21913391 38.93165588 358.68257141 C30.11638486 349.29783843 26.54493713 337.83797244 26.54493713 325.26069641 C4.76493713 325.26069641 -17.01506287 325.26069641 -39.45506287 325.26069641 C-39.54327049 287.2126793 -39.6171172 249.16475874 -39.65932418 211.11666862 C-39.66432692 206.6231738 -39.66950422 202.12967919 -39.67478943 197.63618469 C-39.67583867 196.74162337 -39.67688791 195.84706204 -39.67796895 194.92539279 C-39.69536686 180.4470954 -39.72690117 165.96886164 -39.76367405 151.49060197 C-39.80110056 136.63089459 -39.82330234 121.77122049 -39.83141685 106.91146791 C-39.83690107 97.74464313 -39.85421289 88.57799822 -39.88672873 79.41122882 C-39.90789773 73.12239024 -39.91425752 66.83364443 -39.90906838 60.54477282 C-39.90651029 56.91818346 -39.91038886 53.29190807 -39.93188477 49.66537476 C-39.95505421 45.72760205 -39.94699065 41.79023504 -39.93608093 37.85240173 C-39.9477323 36.71424566 -39.95938366 35.57608958 -39.9713881 34.40344393 C-39.89625779 24.35742338 -37.34486291 16.36139007 -30.36912537 9.01460266 C-21.41658888 0.81115596 -11.75644634 -0.04284718 0 0 Z " fill="#FED05C" transform="translate(39.45506286621094,67.73930358886719)"/>
<path d="M0 0 C1.03253906 0.36222656 2.06507813 0.72445313 3.12890625 1.09765625 C14.99911134 5.56982803 24.77870005 13.40624081 33 23 C33.47877641 24.08862319 33.47877641 24.08862319 33.96722507 25.19923878 C35.35033098 28.07757664 36.58941837 29.88322066 39 32 C44.44485174 33.40402151 49.87065964 33.24209593 55.45092773 33.18041992 C57.14490135 33.19425961 58.83884747 33.21191002 60.53274536 33.233078 C65.12625335 33.27834029 69.71797409 33.26660187 74.31157565 33.2418611 C78.14867417 33.22664059 81.98545166 33.23997052 85.82253987 33.25349981 C94.87589937 33.28526224 103.92839954 33.27168817 112.98168945 33.22827148 C122.31638233 33.18414548 131.64905077 33.20878028 140.98361057 33.26862639 C149.00347259 33.31804132 157.02271543 33.32847855 165.0427013 33.30691797 C169.83032241 33.29420487 174.61686856 33.29532713 179.40438652 33.33238792 C183.90743329 33.36523635 188.40773301 33.34915008 192.91055679 33.29571724 C194.56046232 33.28411712 196.21058923 33.28945135 197.86036491 33.31317902 C206.81730281 33.67090477 206.81730281 33.67090477 214.50290108 29.78667641 C216.29195981 27.25919741 217.67318935 24.79143217 219 22 C228.50046639 9.02995602 244.87260529 -0.16158553 260.4375 -3.56640625 C272.55136546 -5.04079119 285.48344774 -5.40001166 297 -1 C298.28777344 -0.61714844 298.28777344 -0.61714844 299.6015625 -0.2265625 C312.26832405 3.75233378 323.52556246 11.85572255 332 22 C332.6336145 23.23943359 332.6336145 23.23943359 333.2800293 24.50390625 C334.95291051 27.54383535 336.39399712 29.69171988 339 32 C344.36130021 33.39083389 349.39549663 33.26342803 354.9375 33.125 C359.908125 33.08375 364.87875 33.0425 370 33 C370 45.21 370 57.42 370 70 C355.81 70 341.62 70 327 70 C326.67 73.63 326.34 77.26 326 81 C322.64502183 94.46925058 314.09571604 106.40942798 302.28515625 113.72265625 C288.87277013 121.21983618 274.96161093 123.26274554 259.984375 119.04296875 C245.42854625 113.95604954 235.30615631 105.74332883 228.41796875 91.796875 C225.0757351 83.97585561 224 78.66714749 224 70 C158.99 70 93.98 70 27 70 C27 72.31 27 74.62 27 77 C23.86952049 91.37572155 16.8558026 103.69972684 4.6875 112.3125 C-8.27632476 120.31823038 -22.1430368 123.19131998 -37.125 119.875 C-46.84764525 117.13008432 -54.88097741 112.10330731 -62 105 C-62.53238281 104.47921875 -63.06476563 103.9584375 -63.61328125 103.421875 C-72.42855227 94.03714202 -76 82.57727603 -76 70 C-97.78 70 -119.56 70 -142 70 C-142 57.79 -142 45.58 -142 33 C-136.27462891 33.06574219 -136.27462891 33.06574219 -130.43359375 33.1328125 C-126.72666735 33.14119947 -123.02014814 33.13245846 -119.31323242 33.12207031 C-116.74186742 33.12401402 -114.17045102 33.14369826 -111.59936523 33.18164062 C-107.8967098 33.23317575 -104.19892692 33.22037817 -100.49609375 33.1953125 C-99.35103867 33.22505157 -98.20598358 33.25479065 -97.02622986 33.28543091 C-90.76954168 33.20728847 -90.76954168 33.20728847 -85.76498413 29.80406189 C-83.99340014 27.27206521 -82.49411137 24.70169488 -81 22 C-72.06021417 10.74113399 -60.31437735 3.84643336 -47 -1 C-46.19820313 -1.32097656 -45.39640625 -1.64195312 -44.5703125 -1.97265625 C-30.59414469 -6.77277778 -13.57822335 -5.2223936 0 0 Z " fill="#344A5E" transform="translate(142,323)"/>
<path d="M0 0 C17.5725 -0.04125 35.145 -0.0825 53.25 -0.125 C61.54366699 -0.15231201 61.54366699 -0.15231201 70.00488281 -0.18017578 C76.80615234 -0.18920898 76.80615234 -0.18920898 79.99969482 -0.19088745 C82.2091757 -0.19393951 84.41865344 -0.20093363 86.62811279 -0.21115112 C89.99334415 -0.22592264 93.3583736 -0.22780758 96.72363281 -0.22705078 C97.69223866 -0.234247 98.6608445 -0.24144321 99.65880203 -0.2488575 C116.14726685 -0.19966125 129.10843093 3.56217263 141.12890625 15.03125 C153.4847225 27.97320555 158.13834051 46.97055876 163.375 63.6875 C163.60420639 64.41416744 163.83341278 65.14083488 164.06956482 65.88952255 C176.96266323 107.133354 174.97231934 149.28810532 173 192 C169.29096608 192.17508016 165.58300042 192.28110903 161.87109375 192.375 C160.82385132 192.42527344 159.77660889 192.47554687 158.69763184 192.52734375 C151.08257961 192.67190476 151.08257961 192.67190476 148.00949097 190.7645874 C144.54956384 187.35270834 142.34331287 183.20247019 140 179 C129.84995044 166.07386851 112.8262973 158.78545208 97 156 C75.59473819 154.56091751 56.51248348 158.35399114 39.75 172.41796875 C33.18403737 178.35371621 27.90544532 184.64183201 23 192 C15.41 192 7.82 192 0 192 C0 128.64 0 65.28 0 0 Z " fill="#FE7058" transform="translate(331,164)"/>
<path d="M0 0 C11.33556965 -0.06961859 22.67108812 -0.12287152 34.00682831 -0.15543652 C39.27090526 -0.17106886 44.53483556 -0.19226277 49.79882812 -0.22631836 C54.88222183 -0.25899844 59.96547477 -0.2768713 65.04896545 -0.28463173 C66.98497227 -0.29015972 68.9209717 -0.30095449 70.85691833 -0.31719017 C73.5760034 -0.33907941 76.29451239 -0.34196213 79.01367188 -0.34057617 C79.80777466 -0.351362 80.60187744 -0.36214783 81.42004395 -0.3732605 C88.63896103 -0.33364237 95.16127726 1.43500985 100.64302063 6.45896912 C106.7914941 13.44137998 108.96100281 22.63114027 111.42578125 31.37109375 C111.82130917 32.74375153 112.21774368 34.11614837 112.61503601 35.48829651 C113.43925388 38.34311302 114.25637647 41.19982155 115.06762695 44.05834961 C116.10832532 47.7252357 117.16107029 51.38851818 118.21833515 55.05065823 C119.22882553 58.55220247 120.23396516 62.05527443 121.23828125 65.55859375 C121.52588538 66.55992246 121.52588538 66.55992246 121.8192997 67.58148003 C122.35813655 69.46160277 122.89267751 71.34295511 123.42700195 73.22436523 C123.731689 74.29420151 124.03637604 75.36403778 124.35029602 76.46629333 C125 79 125 79 125 81 C108.8496808 81.02332909 92.69936704 81.04097922 76.54903507 81.05181217 C69.05066936 81.05697511 61.55231409 81.06401776 54.05395508 81.07543945 C47.52069496 81.08538637 40.98744241 81.09185344 34.45417494 81.09408849 C30.99278193 81.09539559 27.53141058 81.09848136 24.07002449 81.10573006 C20.21212473 81.11374407 16.35424643 81.11399113 12.49633789 81.11352539 C11.34044159 81.11712067 10.18454529 81.12071594 8.99362183 81.12442017 C7.94889206 81.1230455 6.90416229 81.12167084 5.82777405 81.12025452 C4.45752878 81.12163721 4.45752878 81.12163721 3.05960178 81.12304783 C1 81 1 81 0 80 C-0.09502416 77.50507612 -0.12557566 75.03793986 -0.11352539 72.54272461 C-0.11367142 71.76229294 -0.11381744 70.98186127 -0.1139679 70.17778015 C-0.11326858 67.5859402 -0.10547536 64.99417122 -0.09765625 62.40234375 C-0.09579213 60.6101536 -0.0943682 58.81796294 -0.09336853 57.02577209 C-0.08954284 52.29929203 -0.07971212 47.57284248 -0.06866455 42.84637451 C-0.05845153 38.0271445 -0.05387115 33.20790958 -0.04882812 28.38867188 C-0.03808989 18.92576781 -0.02101286 9.46288644 0 0 Z " fill="#CDD4DD" transform="translate(354,189)"/>
<path d="M0 0 C1.03125 0.721875 2.0625 1.44375 3.125 2.1875 C14.57258213 12.33790569 19.84059388 26.11807073 21 41 C21.43237528 54.59745697 16.45303616 66.07839234 7.6875 76.3125 C-1.57384814 86.1012951 -13.5506163 92.23344289 -27.03515625 93.22265625 C-41.09767116 93.60816023 -55.85529256 89.66484723 -66.3515625 79.80859375 C-77.32191262 67.77240392 -82.49637567 55.11365247 -82.2109375 38.91796875 C-81.41945378 24.21689159 -74.77567294 11.89877937 -64 2 C-44.30930942 -12.70570562 -20.6156292 -14.56122509 0 0 Z " fill="#40596B" transform="translate(448,351)"/>
<path d="M0 0 C10.53511401 8.78929512 17.55768649 21.0723988 19.30078125 34.7109375 C19.43824269 36.25154305 19.56335197 37.79330314 19.67578125 39.3359375 C19.74152344 40.03460938 19.80726563 40.73328125 19.875 41.453125 C20.54852529 54.13398055 14.46162748 66.13197895 6.42578125 75.5234375 C-2.7729181 85.31315707 -14.82100064 91.62662926 -28.33203125 92.5390625 C-43.47707859 92.76680757 -56.37934624 88.57133231 -67.5546875 78.1015625 C-68.43060547 77.22757813 -68.43060547 77.22757813 -69.32421875 76.3359375 C-69.85660156 75.81515625 -70.38898438 75.294375 -70.9375 74.7578125 C-79.51205837 65.62934209 -83.5831616 54.21003671 -83.29833984 41.89868164 C-82.77953587 29.46655398 -80.00653101 19.31522252 -72.32421875 9.3359375 C-71.64746094 8.41361328 -71.64746094 8.41361328 -70.95703125 7.47265625 C-53.55941778 -14.6920999 -21.83554468 -15.63351602 0 0 Z " fill="#40596B" transform="translate(149.32421875,351.6640625)"/>
<path d="M0 0 C33.99 0 67.98 0 103 0 C103 28.05 103 56.1 103 85 C100.69 83.02 98.38 81.04 96 79 C94.02 77.35 92.04 75.7 90 74 C86.04 77.96 82.08 81.92 78 86 C73.33333333 82 68.66666667 78 64 74 C60.04 77.96 56.08 81.92 52 86 C47.33333333 82 42.66666667 78 38 74 C34.04 77.96 30.08 81.92 26 86 C21.33333333 82 16.66666667 78 12 74 C11.21753906 74.7940625 10.43507813 75.588125 9.62890625 76.40625 C8.60690222 77.43763021 7.58475966 78.46887316 6.5625 79.5 C6.04623047 80.02464844 5.52996094 80.54929687 4.99804688 81.08984375 C3.68423213 82.41224552 2.34406495 83.70835568 1 85 C0.67 85 0.34 85 0 85 C0 56.95 0 28.9 0 0 Z " fill="#F2F1F0" transform="translate(114,68)"/>
<path d="M0 0 C11.07480108 -0.06962537 22.14954976 -0.12287493 33.22452545 -0.15543652 C38.36753593 -0.1710674 43.51039624 -0.19225858 48.65332031 -0.22631836 C53.62000497 -0.25900372 58.58654552 -0.2768724 63.55332947 -0.28463173 C65.44467943 -0.29015878 67.33602185 -0.3009517 69.22731018 -0.31719017 C71.88413304 -0.33908652 74.54036651 -0.34196185 77.19726562 -0.34057617 C78.36036758 -0.35675491 78.36036758 -0.35675491 79.54696655 -0.3732605 C86.71077899 -0.33304415 93.20506677 1.48310777 98.64216614 6.45527649 C104.56479283 13.19308216 106.79624522 21.99839621 109.20703125 30.42578125 C109.57728928 31.69093063 109.9475473 32.95608002 110.32902527 34.25956726 C111.10624255 36.91763605 111.87618941 39.57765968 112.64038086 42.23950195 C113.6188043 45.64668758 114.61168288 49.04944691 115.60948658 52.45100117 C116.56472391 55.71167827 117.51075896 58.97499059 118.45703125 62.23828125 C118.81320023 63.45808182 119.1693692 64.67788239 119.53633118 65.93464661 C119.8605455 67.06649887 120.18475983 68.19835114 120.51879883 69.36450195 C120.80572098 70.35883743 121.09264313 71.35317291 121.38825989 72.37763977 C122 75 122 75 122 79 C118.3684653 77.65732944 115.24781941 76.0276268 111.9921875 73.9375 C111.01886475 73.31439941 110.04554199 72.69129883 109.04272461 72.04931641 C107.99737549 71.37304199 106.95202637 70.69676758 105.875 70 C104.78131104 69.29665527 103.68762207 68.59331055 102.56079102 67.86865234 C93.70643225 62.16154371 84.94318677 56.32008563 76.19259644 50.45559692 C69.24101299 45.79781185 62.26123738 41.21214967 55.13354492 36.82788086 C47.62437482 32.19035374 40.2637175 27.32272944 32.88623047 22.47973633 C27.5983882 19.00869688 22.30679688 15.54500428 16.98828125 12.12109375 C16.06821289 11.5278833 15.14814453 10.93467285 14.20019531 10.32348633 C12.48662438 9.22006972 10.77122744 8.11948186 9.05371094 7.0222168 C8.29477539 6.53277588 7.53583984 6.04333496 6.75390625 5.5390625 C6.09720947 5.11834473 5.4405127 4.69762695 4.76391602 4.26416016 C2.97575557 2.98262455 1.53509459 1.56959584 0 0 Z " fill="#F1F1F1" transform="translate(356,189)"/>
<path d="M0 0 C5.56792745 3.07286562 8.65432505 6.83797515 10.6875 12.9375 C11.42799988 19.77194968 10.81382112 25.31508585 6.6875 30.9375 C1.93801233 36.00211955 -2.60488311 38.92849361 -9.625 39.3125 C-15.43628719 39.14839388 -19.82971329 37.26063967 -24.07421875 33.2890625 C-29.1050628 27.71006353 -30.81841012 23.01958381 -30.6171875 15.49609375 C-30.00635212 10.36664279 -28.17068718 6.6536125 -24.37109375 3.14453125 C-16.73830978 -2.77333624 -8.98190423 -4.10101915 0 0 Z " fill="#AAB1B8" transform="translate(127.3125,374.0625)"/>
<path d="M0 0 C4.97728345 2.84128326 8.2832433 6.90401115 11.125 11.8125 C12.6551834 18.23927029 12.35641558 23.77171381 9.0859375 29.58203125 C5.81078521 34.13085387 1.2741864 38.12221752 -4.25 39.4375 C-10.76326727 40.24067747 -15.90270009 39.34222204 -21.25 35.4375 C-26.79465978 30.20385595 -29.33091871 26.341871 -29.5625 18.6875 C-29.47808304 13.46899725 -28.46492181 9.59641548 -25.25 5.4375 C-18.02692625 -1.23330654 -9.44388021 -4.25793443 0 0 Z " fill="#AAB1B8" transform="translate(426.25,373.5625)"/>
</svg>
